<svg version="1.2" xmlns="http://www.w3.org/2000/svg" viewBox="0 0 38 38" width="38" height="38"><style>.a{fill:#fff}</style><path fill-rule="evenodd" class="a" d="m37.3 15.2q-0.3-1.8-1.1-3.5-0.7-1.6-1.7-3.1-1-1.5-2.2-2.7-1.3-1.3-2.8-2.3-1.5-1-3.1-1.7-1.7-0.7-3.5-1.1-1.9-0.4-3.8-0.4-1.9 0-3.7 0.4-1.8 0.4-3.5 1.1-1.6 0.7-3.1 1.7-1.5 1-2.8 2.3-1.2 1.2-2.2 2.7-1.1 1.5-1.8 3.1-0.7 1.7-1 3.5-0.4 1.9-0.4 3.8 0 1.9 0.4 3.7 0.3 1.8 1 3.5 0.7 1.6 1.8 3.1 1 1.5 2.2 2.8 1.3 1.3 2.8 2.3 1.5 1 3.1 1.7 1.7 0.7 3.5 1 1.8 0.4 3.7 0.4 1.9 0 3.8-0.4 1.8-0.3 3.5-1 1.6-0.7 3.1-1.7 1.5-1 2.8-2.3 1.2-1.3 2.2-2.8 1-1.5 1.7-3.1 0.8-1.7 1.1-3.5 0.4-1.8 0.4-3.7 0-1.9-0.4-3.8zm-2.3 3.6c-0.2 0-5.6-1.2-11.1-0.5q-0.1-0.4-0.3-0.8-0.5-1.2-1-2.3c6.2-2.6 8.7-6.3 8.8-6.3 2.2 2.7 3.5 6.2 3.6 9.9zm-5.4-11.7c0 0-2.3 3.5-8.3 5.7-2.7-5-5.7-8.9-5.9-9.2q1.8-0.5 3.7-0.5c4.1 0 7.7 1.5 10.5 4zm-14.3-3.5q0 0 0 0 0 0 0 0zm-2.9 1c0.2 0.3 3.1 4.3 5.9 9.2-7.6 2-14.2 1.9-14.7 1.9 1.1-4.9 4.4-9 8.8-11.1zm-9.1 14.4q0-0.3 0-0.5c0.3 0 8.1 0.2 16.3-2.3q0.7 1.3 1.3 2.7-0.3 0.1-0.7 0.2c-8.5 2.8-12.8 10.5-12.8 10.5-2.6-2.9-4.1-6.6-4.1-10.6zm15.8 15.8c-3.8 0-7.3-1.3-10.1-3.6 0.3 0.2 0.4 0.3 0.4 0.3 0 0 3-6.7 12.4-9.9q0.1-0.1 0.1-0.1c2.3 5.8 3.2 10.7 3.4 12.1-1.9 0.8-4 1.2-6.2 1.2zm8.9-2.7c-0.2-0.9-1-5.6-3.1-11.3 5.1-0.8 9.6 0.6 9.9 0.7-0.7 4.4-3.2 8.2-6.8 10.6z"/></svg>