<svg version="1.2" xmlns="http://www.w3.org/2000/svg" viewBox="0 0 925 988" width="925" height="988"><style>.a{fill:#f4fafe}</style><path class="a" d="m925 5.3c-89.3 8.9-113.7 97-318.3 18.4-129.6-49.8-208.6-6.6-244 7.6-18.5 7.5-35.9 18.3-50.4 32.4-35.5 34.3-44 87.3-28.9 137h-0.1c7.9 26.7 1.8 58.5-19 84.5-23.3 29.2-58.7 42.9-90.2 38.1-9.6-2-19.5-3-29.7-3-79.2 0-144.2 61.1-144.2 137.8 0 36.1 14.2 69 37.5 93.7 17.5 19.5 28.4 47.1 28.4 77.7 0 25.6-7.7 49.1-20.4 67.6-20.1 24.1-32.1 54-32.1 86.5 0 79.5 71.5 143.9 159.7 143.9 29.3 0 56.8-7.1 80.4-19.6 38.3-18 86.5-28.8 139-28.8 79.8 0 150 25 189.9 62.5 31.8 28.6 75 46.1 122.6 46.1 65.1 0 121.9-32.7 152.4-81.4 9.2-12.5 36.2-44.6 67.4-35.7z"/></svg>