<svg version="1.2" xmlns="http://www.w3.org/2000/svg" viewBox="0 0 418 667" width="418" height="667"><style>.a{fill:#f4fafe}</style><path class="a" d="m418 63.6c-7.6 4.1-16.3 6.9-25.8 7.9-25.6 2.9-49.4-7.7-62.4-25.4-3.7-5.5-8.1-10.9-13-15.8-38.6-38.6-99.9-40.5-137.2-3.2-17.6 17.6-26.6 40.5-27.3 63.9-1 17.9-9.1 36.7-24 51.6-12.5 12.4-27.7 20.2-42.8 23-21.5 1.9-41.9 10.6-57.7 26.4-38.7 38.7-35.3 104.8 7.6 147.7 14.3 14.3 31.1 24.2 48.7 29.6 27.4 9.9 56.1 28.1 81.6 53.6 38.8 38.9 60.8 85.1 62 122.8 1.6 29.4 14 58.9 37.2 82.1 31.6 31.6 75.2 43.4 113.8 34.5 7.9-1.2 26.1-2.9 39.3 4.6z"/></svg>