<svg version="1.2" xmlns="http://www.w3.org/2000/svg" viewBox="0 0 279 967" width="279" height="967"><style>.a{fill:#f4fafe}</style><path class="a" d="m193.5 304.8c-26.3-10.3-48.6-30.9-60.3-59.2-9.8-23.7-10.5-48.8-3.8-71.6 12.6-31.2 14.1-64.3 1.7-94.3-20-48.5-71.2-76.9-131.1-79.4v966c17.6-13.9 30.6-26.6 40.3-35.2 17.3-15.1 31.9-32.9 42.3-52.5 25.3-47.6 14.2-100.3-21-139.5-18.7-21.2-24.2-53.4-11.6-86.6 14.1-37.4 47.2-65.9 83.1-75.6 11.1-2.5 22.2-6 33.3-10.5 85.8-35.4 132.8-121 103.5-191.8-13.8-33.4-41.7-57.4-76.4-69.8z"/></svg>