<svg version="1.2" xmlns="http://www.w3.org/2000/svg" viewBox="0 0 925 904" width="925" height="904"><style>.a{fill:#f4fafe}</style><path class="a" d="m0 899.2c89.3-8.2 113.7-88.7 318.3-16.8 129.6 45.5 208.6 6 244-7 18.5-6.8 35.9-16.7 50.4-29.6 35.5-31.4 44-79.9 28.9-125.4h0.1c-7.9-24.4-1.8-53.5 19-77.3 23.3-26.7 58.7-39.2 90.2-34.8 9.6 1.7 19.5 2.7 29.7 2.7 79.2 0 144.2-55.9 144.2-126.1 0-33-14.2-63.1-37.5-85.7-17.5-17.8-28.4-43.1-28.4-71.1 0-23.4 7.7-45 20.4-61.8 20.1-22.1 32.1-49.5 32.1-79.2 0-72.7-71.5-131.6-159.7-131.6-29.3 0-56.8 6.5-80.4 17.9-38.3 16.5-86.5 26.3-139 26.3-79.8 0-150-22.8-189.9-57.2-31.8-26.1-75-42.2-122.6-42.2-65.1 0-121.9 30-152.4 74.6-9.2 11.4-36.2 40.8-67.4 32.6z"/></svg>