<svg version="1.2" xmlns="http://www.w3.org/2000/svg" viewBox="0 0 37 30" width="37" height="30"><style>.a{fill:#fff}</style><path class="a" d="m36.8 3.6q-2 0.9-4.3 1.2c1.6-1 2.8-2.5 3.3-4.2-1.4 0.8-3.1 1.5-4.8 1.8-1.4-1.5-3.3-2.4-5.5-2.4-4.2 0-7.6 3.4-7.6 7.6q0 0.9 0.2 1.7c-6.3-0.3-11.9-3.3-15.7-7.9-0.6 1.1-1 2.4-1 3.8 0 2.6 1.4 5 3.4 6.3-1.2 0-2.4-0.3-3.4-0.9q0 0 0 0.1c0 3.7 2.6 6.7 6 7.4q-0.9 0.3-2 0.3-0.7 0-1.4-0.2c1 3.1 3.8 5.3 7.1 5.3-2.6 2.1-5.9 3.3-9.4 3.3q-0.9 0-1.8-0.1c3.3 2.1 7.3 3.4 11.6 3.4 14 0 21.6-11.6 21.6-21.6q0-0.5 0-1c1.4-1.1 2.7-2.4 3.7-3.9z"/></svg>